<svg xmlns="http://www.w3.org/2000/svg" viewBox="0 0 161.61 48.39"><defs><style>.cls-1{fill:#231815;}</style></defs><g id="Layer_2" data-name="Layer 2"><g id="レイヤー_1" data-name="レイヤー 1"><rect class="cls-1" width="12.8" height="43.65"/><rect class="cls-1" x="23.66" y="0.41" width="12.8" height="43.25"/><polygon class="cls-1" points="70.53 32.13 47.47 43.24 47.47 21.01 70.53 32.13"/><path d="M84.09,47.68c3.11,0,4.75-1.69,4.75-4.87v-2a5.3,5.3,0,0,1-4.79,3A5.64,5.64,0,0,1,78.5,37.9,5.62,5.62,0,0,1,84.05,32a5.32,5.32,0,0,1,4.79,3V32.28h.76V42.74c0,3.67-1.91,5.65-5.51,5.65a7.57,7.57,0,0,1-4.63-1.34l.42-.64A7.35,7.35,0,0,0,84.09,47.68Zm4.75-9.8a4.81,4.81,0,1,0-9.59,0,4.81,4.81,0,1,0,9.59,0Z"/><path d="M94.06,37.9c0-3.25,2.26-5.86,5.39-5.86a5.45,5.45,0,0,1,5.31,5.65,1.79,1.79,0,0,1-.05.42h-9.9a5,5,0,0,0,4.94,5,5.43,5.43,0,0,0,3.79-1.41l.44.54a6.09,6.09,0,0,1-4.25,1.58A5.66,5.66,0,0,1,94.06,37.9Zm.78-.45H104c-.33-2.91-2.09-4.7-4.53-4.7A4.71,4.71,0,0,0,94.84,37.45Z"/><path d="M115.86,40.65c0,1.91-1.53,3.13-3.91,3.13A4.94,4.94,0,0,1,107.77,42l.61-.52a4.24,4.24,0,0,0,3.62,1.6c2,0,3.11-1,3.11-2.37,0-3.46-6.94-2-6.94-5.86,0-1.6,1.36-2.8,3.67-2.8a4.24,4.24,0,0,1,3.69,1.56l-.61.49a3.41,3.41,0,0,0-3.08-1.34c-1.79,0-2.92.89-2.92,2.07C108.92,38,115.86,36.58,115.86,40.65Z"/><path d="M118.77,32.28h1.67V29.69h.75v2.59h3.46V33h-3.46v7.9c0,1.43.71,2.18,2,2.18a2.51,2.51,0,0,0,1.7-.61l.42.59a3.12,3.12,0,0,1-2.09.73A2.51,2.51,0,0,1,120.44,41V33h-1.67Z"/><path d="M129.59,38.75c0,2.51,1.5,4.18,3.78,4.18s3.86-1.67,3.86-4.18V32.28H138v6.56a4.44,4.44,0,0,1-4.61,4.8c-2.72,0-4.54-1.91-4.54-4.8V32.28h.76Z"/><path d="M143.91,43.54h-.76V32.28h.76V34a3.17,3.17,0,0,1,2.94-2,2.87,2.87,0,0,1,1.59.4l-.33.69a2.62,2.62,0,0,0-1.41-.38c-1.71,0-2.79,1.5-2.79,4Z"/><path d="M150.91,37.9c0-3.25,2.26-5.86,5.39-5.86a5.45,5.45,0,0,1,5.31,5.65,1.79,1.79,0,0,1-.05.42h-9.9a5,5,0,0,0,4.94,5,5.43,5.43,0,0,0,3.79-1.41l.44.54a6.07,6.07,0,0,1-4.25,1.58A5.66,5.66,0,0,1,150.91,37.9Zm.78-.45h9.14c-.32-2.91-2.09-4.7-4.53-4.7A4.71,4.71,0,0,0,151.69,37.45Z"/></g></g></svg>